<svg xmlns="http://www.w3.org/2000/svg" version="1.1" xmlns:xlink="http://www.w3.org/1999/xlink" xmlns:svgjs="http://svgjs.dev/svgjs" viewBox="0 0 800 800"><defs><filter id="bbburst-blur-1" x="-100%" y="-100%" width="400%" height="400%"><feGaussianBlur in="SourceGraphic" stdDeviation="1"></feGaussianBlur></filter><filter id="bbburst-blur-2" x="-100%" y="-100%" width="400%" height="400%"><feGaussianBlur in="SourceGraphic" stdDeviation="2"></feGaussianBlur></filter><filter id="bbburst-blur-3" x="-100%" y="-100%" width="400%" height="400%"><feGaussianBlur in="SourceGraphic" stdDeviation="4"></feGaussianBlur></filter><filter id="bbburst-blur-4" x="-100%" y="-100%" width="400%" height="400%"><feGaussianBlur in="SourceGraphic" stdDeviation="12"></feGaussianBlur></filter><symbol id="bbburst-shape-1" viewBox="0 0 194 167"><path d="m97 0 96.129 166.5H.871L97 0Z"></path></symbol><symbol id="bbburst-shape-2" viewBox="0 0 126 115"><path d="m63 0 62.77 43.877-23.976 70.996H24.206L.23 43.877 63 0Z"></path></symbol><symbol id="bbburst-shape-3" viewBox="0 0 131 127"><path d="m66 0 66 63.5L66 127 0 63.5 66 0Z"></path></symbol><symbol id="bbburst-shape-4" viewBox="0 0 149 143"><path d="M71.647 2.781c.898-2.764 4.808-2.764 5.706 0l15.445 47.534a3 3 0 0 0 2.853 2.073h49.98c2.906 0 4.115 3.719 1.764 5.427L106.96 87.193a2.999 2.999 0 0 0-1.09 3.354l15.445 47.534c.898 2.764-2.266 5.062-4.617 3.354l-40.435-29.378a3 3 0 0 0-3.526 0l-40.435 29.378c-2.351 1.708-5.515-.59-4.617-3.354L43.13 90.547a3 3 0 0 0-1.09-3.354L1.605 57.815c-2.35-1.708-1.142-5.427 1.764-5.427h49.98a3 3 0 0 0 2.853-2.073L71.647 2.781Z"></path></symbol><symbol id="bbburst-shape-5" viewBox="0 0 145 145"><circle cx="72.5" cy="72.5" r="72.5"></circle></symbol><symbol id="bbburst-shape-6" viewBox="0 0 133 116"><path d="M59.7487 10.2513c-13.6683-13.66839-35.8291-13.66839-49.4974 0-13.66839 13.6683-13.66839 35.8291 0 49.4974l49.4974-49.4974ZM66.5 66.5 41.7513 91.2487 66.5 115.997l24.7487-24.7483L66.5 66.5Zm56.249-6.7513c13.668-13.6683 13.668-35.8291 0-49.4974-13.669-13.66839-35.8294-13.66839-49.4977 0l49.4977 49.4974Zm-112.4977 0 31.5 31.5 49.4974-49.4974-31.5-31.5-49.4974 49.4974Zm80.9974 31.5 31.5003-31.5-49.4977-49.4974-31.5 31.5 49.4974 49.4974Z"></path></symbol><symbol id="bbburst-shape-7" viewBox="0 0 139 124"><path fill-rule="evenodd" clip-rule="evenodd" d="M70.1641 15.0917C54.6093.764854 37.8293-2.10782 24.4032 2.82615 10.3804 7.97941.763366 21.4591 1.00047 37.0608c.1068 7.0273 2.86132 13.7317 7.0039 20.2001C12.1442 63.7249 17.853 70.2322 24.25 76.9024c3.8209 3.9842 7.8871 8.0312 12.0767 12.201h.0001c10.0335 9.9862 20.7748 20.6766 30.5497 32.8956 1.38 1.725 3.8972 2.005 5.6223.624.6706-.536 1.1228-1.244 1.3439-2.011 9.5768-11.748 20.0328-22.0735 29.8163-31.7351 4.19-4.1373 8.256-8.1528 12.078-12.1062 6.396-6.6176 12.106-13.0752 16.247-19.4911 4.144-6.4196 6.905-13.0811 7.012-20.0691.237-15.5124-9.399-28.8902-23.411-33.99923-13.32-4.85681-29.9542-2.08621-45.4209 11.88043Zm-3.7351 7.4919C52.1278 8.44857 37.6826 6.46918 27.1626 10.3352 16.2859 14.3323 8.8148 24.7824 8.99955 36.9392c.07575 4.9844 2.03755 10.2234 5.74165 16.0072 3.707 5.7881 8.9752 11.8418 15.2827 18.4187 3.5798 3.7328 7.4978 7.6329 11.6 11.7163 9.0476 9.0063 18.9911 18.9046 28.1786 29.8666 9.2999-11.068 19.4036-21.0473 28.5839-30.1144l.0007-.0006c4.1019-4.0508 8.0189-7.9196 11.5979-11.6222 6.307-6.5252 11.573-12.5298 15.278-18.2697 3.703-5.7362 5.658-10.924 5.734-15.8531.184-12.0276-7.267-22.3914-18.153-26.3608-10.71-3.90518-25.4722-1.80041-40.0023 12.867-1.5547 1.5694-4.0874 1.5813-5.6568.0265-.3146-.3116-.5666-.6625-.7559-1.0371Z"></path></symbol><symbol id="bbburst-shape-8" viewBox="0 0 87 168"><path d="m12 12 31.2546 18.0749c16.4102 9.4902 20.014 31.6325 7.4603 45.8369L36.3296 92.1884c-12.5684 14.2206-8.9394 36.3916 7.5068 45.8636L75 156" stroke-width="14" stroke-linecap="round" stroke-linejoin="round"></path></symbol><symbol id="bbburst-shape-9" viewBox="0 0 182 172"><path d="M13.5809 69.845 91 13.5967l77.419 56.2483-29.571 91.012H43.1524L13.5809 69.845Z" stroke-width="22"></path></symbol><symbol id="bbburst-shape-10" viewBox="0 0 145 145"><circle cx="72.5" cy="72.5" r="61.5" fill="none" stroke-width="22"></circle></symbol><symbol id="bbburst-shape-11" viewBox="0 0 194 167"><path d="M10.398 161 97 11l86.603 150H10.397Z" stroke-width="11"></path></symbol><symbol id="bbburst-shape-13" viewBox="0 0 159 159"><path stroke-width="22" d="M11 11h137v137H11z"></path></symbol><symbol id="bbburst-shape-14" viewBox="0 0 185 109"><path d="M168 16.5C168 58.1975 134.197 92 92.5 92 50.8025 92 17 58.1975 17 16.5" stroke-width="33" stroke-linecap="round"></path></symbol></defs><use xlink:href="#bbburst-shape-9" width="10.447597734682644" opacity="0.8651249327390085" transform="matrix(0.7442713109168354,0.6678773957442603,-0.6678773957442603,0.7442713109168354,388.6721794307187,-251.49414365892488)" fill="none" stroke="#ff5c58"></use><use xlink:href="#bbburst-shape-5" width="16.52403195297368" opacity="0.7223384113805387" transform="matrix(0.9546326987231659,-0.29778584675656605,0.29778584675656605,0.9546326987231659,135.83900162822445,-289.88958254466917)" fill="#2c2891"></use><use xlink:href="#bbburst-shape-7" width="9.69917963626604" opacity="0.769680195222201" transform="matrix(0.7263567273992265,0.6873179064755157,-0.6873179064755157,0.7263567273992265,500.91043167258096,-274.8308132867955)" fill="#ffbd9b"></use><use xlink:href="#bbburst-shape-10" width="15.095317673940587" opacity="0.755830818174883" transform="matrix(0.772470235834563,-0.6350509701982154,0.6350509701982154,0.772470235834563,-21.50981095059285,-251.16478110294088)" fill="none" stroke="#ffbd9b"></use><use xlink:href="#bbburst-shape-14" width="11.644432937514964" opacity="0.7900425140441943" transform="matrix(0.9774687388979855,-0.2110802323221717,0.2110802323221717,0.9774687388979855,-42.97026368656448,-185.1482793421866)" fill="none" stroke="#2c2891"></use><use xlink:href="#bbburst-shape-3" width="67.52840585130281" opacity="-0.01612732616898671" transform="matrix(0.9343874781254712,0.3562583903886647,-0.3562583903886647,0.9343874781254712,830.9026655169844,330.95253595976675)" fill="#ffa6d5" filter="url(#bbburst-blur-3)"></use><use xlink:href="#bbburst-shape-9" width="15.4371898540569" opacity="0.7540426530281205" transform="matrix(0.9171486530840506,-0.3985452899559997,0.3985452899559997,0.9171486530840506,33.5837490161185,-220.889094075115)" fill="none" stroke="#2c2891"></use><use xlink:href="#bbburst-shape-8" width="11.306449310665899" opacity="0.8747993565370595" transform="matrix(0.9988945288663734,0.04700766108652799,-0.04700766108652799,0.9988945288663734,117.20591323419993,-330.1899400102618)" fill="none" stroke="#ffbd9b"></use><use xlink:href="#bbburst-shape-9" width="5.546086983510932" opacity="0.9832468344865811" transform="matrix(0.7896995097789034,0.6134938339176359,-0.6134938339176359,0.7896995097789034,258.797887147929,-311.4196064050346)" fill="none" stroke="#ff5c58"></use><use xlink:href="#bbburst-shape-4" width="5.813658305079298" opacity="0.9573801671931613" transform="matrix(0.9998789479283913,-0.015559225225360648,0.015559225225360648,0.9998789479283913,32.15751372251853,-389.3282994094365)" fill="#2c2891"></use><use xlink:href="#bbburst-shape-5" width="32.4483566258165" opacity="0.5404892498380118" transform="matrix(0.7959126826912514,0.6054114316159015,-0.6054114316159015,0.7959126826912514,604.7695291787602,-63.35468821296132)" fill="#2c2891" filter="url(#bbburst-blur-1)"></use><use xlink:href="#bbburst-shape-13" width="6.852075553260668" opacity="0.8819399252938314" transform="matrix(0.8505723222804285,-0.525858084059263,0.525858084059263,0.8505723222804285,-96.8056156304156,-319.00619915834585)" fill="none" stroke="#ffa6d5"></use><use xlink:href="#bbburst-shape-14" width="22.8998810857864" opacity="0.7282155462437855" transform="matrix(0.9189477038569771,0.3943794081541142,-0.3943794081541142,0.9189477038569771,343.5840033128322,-184.16457750460341)" fill="none" stroke="#ffa6d5"></use><use xlink:href="#bbburst-shape-9" width="10.37057309097502" opacity="0.6985951596801755" transform="matrix(0.9250172923828507,-0.37992500416884867,0.37992500416884867,0.9250172923828507,143.8695000578262,-346.9613134447496)" fill="none" stroke="#2c2891"></use><use xlink:href="#bbburst-shape-1" width="30.57091536407377" opacity="0.4764901230816234" transform="matrix(0.984439412052146,-0.17572434093894052,0.17572434093894052,0.984439412052146,255.27872393588012,6.501550706812793)" fill="#ff5c58" filter="url(#bbburst-blur-1)"></use><use xlink:href="#bbburst-shape-2" width="15.041003671163747" opacity="0.7185721646805545" transform="matrix(0.9334936337582747,-0.3585939705750395,0.3585939705750395,0.9334936337582747,-134.52762534674625,-89.71680995128122)" fill="#ffa6d5"></use><use xlink:href="#bbburst-shape-11" width="11.950715098915385" opacity="0.8605550610335144" transform="matrix(0.7181832933783605,0.6958539768602403,-0.6958539768602403,0.7181832933783605,350.3502857557351,-174.75349451397477)" fill="none" stroke="#ffa6d5"></use><use xlink:href="#bbburst-shape-13" width="4.517411576222597" opacity="0.9710022570878003" transform="matrix(0.9916526985043734,0.12893768087333565,-0.12893768087333565,0.9916526985043734,77.44729948400857,-389.840337791825)" fill="none" stroke="#ff5c58"></use><use xlink:href="#bbburst-shape-1" width="13.152078780342976" opacity="0.8543979063649119" transform="matrix(0.9873192025996952,0.1587475737701271,-0.1587475737701271,0.9873192025996952,161.71420037134683,-294.78335699980886)" fill="#ff5c58"></use><use xlink:href="#bbburst-shape-13" width="31.734852260845287" opacity="0.6173455167765275" transform="matrix(0.7991783197962109,0.6010940135849843,-0.6010940135849843,0.7991783197962109,537.5769276609419,-104.62984018320364)" fill="none" stroke="#2c2891" filter="url(#bbburst-blur-1)"></use><use xlink:href="#bbburst-shape-13" width="11.119879598593318" opacity="0.8371244065377217" transform="matrix(0.97030624199165,-0.24187971546213105,0.24187971546213105,0.97030624199165,-54.62287123895761,-230.9895297130878)" fill="none" stroke="#ffa6d5"></use><use xlink:href="#bbburst-shape-8" width="25.596548657137234" opacity="0.5618516366298298" transform="matrix(0.9915593779769715,-0.12965338385835268,0.12965338385835268,0.9915593779769715,248.94133992060716,-88.86609961984124)" fill="none" stroke="#2c2891" filter="url(#bbburst-blur-1)"></use><use xlink:href="#bbburst-shape-6" width="12.769235624170216" opacity="0.7520564297920443" transform="matrix(0.9938717918633589,0.11053895846404593,-0.11053895846404593,0.9938717918633589,52.33844262657243,-150.73325572218616)" fill="#ffa6d5"></use><use xlink:href="#bbburst-shape-4" width="33.3924402502554" opacity="0.46806166429938045" transform="matrix(0.7164823887832246,0.6976051795704246,-0.6976051795704246,0.7164823887832246,673.1705326650863,45.33819836118141)" fill="#00a19d" filter="url(#bbburst-blur-1)"></use><use xlink:href="#bbburst-shape-8" width="14.8784084819154" opacity="0.8204261260913197" transform="matrix(0.8222619950875605,-0.5691091384212915,0.5691091384212915,0.8222619950875605,-116.31880474284124,-188.82486451060112)" fill="none" stroke="#ff5c58"></use><use xlink:href="#bbburst-shape-5" width="24.386788866620464" opacity="0.4302108715512748" transform="matrix(0.9997774961656547,0.021094031400713767,-0.021094031400713767,0.9997774961656547,95.28932923803917,160.94698058964104)" fill="#ff5c58" filter="url(#bbburst-blur-2)"></use><use xlink:href="#bbburst-shape-4" width="48.96139407866402" opacity="0.3584901002097898" transform="matrix(0.8298565247343476,-0.5579768349634519,0.5579768349634519,0.8298565247343476,215.3662194904514,130.07723176839727)" fill="#00a19d" filter="url(#bbburst-blur-2)"></use><use xlink:href="#bbburst-shape-11" width="15.080643003950815" opacity="0.665834097868764" transform="matrix(0.9996689799528216,0.0257280104183216,-0.0257280104183216,0.9996689799528216,336.0101776389488,-375.5555985103242)" fill="none" stroke="#ffbd9b"></use><use xlink:href="#bbburst-shape-5" width="15.094075979015294" opacity="0.6617056189611608" transform="matrix(0.9961697680950179,-0.08744022606053901,0.08744022606053901,0.9961697680950179,53.92666268122476,-73.54559923026983)" fill="#ffa6d5"></use><use xlink:href="#bbburst-shape-6" width="21.97459320051178" opacity="0.4169042347896459" transform="matrix(0.8926937355583489,-0.45066383757173234,0.45066383757173234,0.8926937355583489,-156.11762956276067,229.98052606360267)" fill="#00a19d" filter="url(#bbburst-blur-2)"></use><use xlink:href="#bbburst-shape-10" width="12.504361390999524" opacity="0.8954459500274375" transform="matrix(0.9968943208381235,-0.07875095606211091,0.07875095606211091,0.9968943208381235,8.744151262814633,-304.60956415500084)" fill="none" stroke="#ffa6d5"></use><use xlink:href="#bbburst-shape-3" width="27.054689807201672" opacity="0.5573893558655254" transform="matrix(0.9886413787541268,-0.15029379300270204,0.15029379300270204,0.9886413787541268,116.47481368008312,6.314814750134815)" fill="#00a19d" filter="url(#bbburst-blur-1)"></use><use xlink:href="#bbburst-shape-4" width="5.4645262215360235" opacity="0.9826895958246992" transform="matrix(0.9631611251161833,-0.2689249840846474,0.2689249840846474,0.9631611251161833,-104.01147197920731,-368.35861255871237)" fill="#ffa6d5"></use><use xlink:href="#bbburst-shape-5" width="10.464078377038462" opacity="0.7206411401461781" transform="matrix(0.8759717657697685,-0.48236237993255016,0.48236237993255016,0.8759717657697685,-149.54570032343568,-72.65765162454579)" fill="#ffbd9b"></use><use xlink:href="#bbburst-shape-9" width="21.85996690009093" opacity="0.5299290706787294" transform="matrix(0.9991739570965583,-0.040637463749661616,0.040637463749661616,0.9991739570965583,1.7315524262803805,69.8082218108616)" fill="none" stroke="#ff5c58" filter="url(#bbburst-blur-1)"></use><use xlink:href="#bbburst-shape-10" width="9.243634872885464" opacity="0.9192065874128653" transform="matrix(0.7650702976406448,0.6439467677285562,-0.6439467677285562,0.7650702976406448,294.89820634539853,-239.3020798373281)" fill="none" stroke="#ffa6d5"></use><use xlink:href="#bbburst-shape-11" width="32.15105738286565" opacity="0.4210491916480217" transform="matrix(0.9508462395769666,0.3096634119206561,-0.3096634119206561,0.9508462395769666,674.9705821402022,-265.16564097460457)" fill="none" stroke="#ffbd9b" filter="url(#bbburst-blur-2)"></use><use xlink:href="#bbburst-shape-13" width="36.279150505271005" opacity="0.5392191040120318" transform="matrix(0.8621902102699598,0.5065846832609948,-0.5065846832609948,0.8621902102699598,446.3125948361911,26.819096542483976)" fill="none" stroke="#ffa6d5" filter="url(#bbburst-blur-1)"></use><use xlink:href="#bbburst-shape-10" width="21.0717821380076" opacity="0.6219792187319436" transform="matrix(0.7939599464777014,0.6079700678397955,-0.6079700678397955,0.7939599464777014,612.119005223323,-300.59304012807183)" fill="none" stroke="#ff5c58" filter="url(#bbburst-blur-1)"></use><use xlink:href="#bbburst-shape-14" width="45.474497941684625" opacity="0.2187563003171631" transform="matrix(0.8899988648535807,0.455962740319138,-0.455962740319138,0.8899988648535807,899.0800417185837,-107.01888979741403)" fill="none" stroke="#00a19d" filter="url(#bbburst-blur-3)"></use><use xlink:href="#bbburst-shape-3" width="28.89981141045199" opacity="0.44775515971756985" transform="matrix(0.7823967478045445,-0.6227803216422882,0.6227803216422882,0.7823967478045445,-104.10628936963397,225.7449509609113)" fill="#ff5c58" filter="url(#bbburst-blur-2)"></use><use xlink:href="#bbburst-shape-6" width="8.304392416123795" opacity="0.8086515983364739" transform="matrix(0.9932249059779006,0.11620794355460662,-0.11620794355460662,0.9932249059779006,233.3070796331296,-385.39979971297316)" fill="#00a19d"></use><use xlink:href="#bbburst-shape-1" width="25.942227104695966" opacity="0.5383506171447014" transform="matrix(0.9965804694303818,-0.082627888451296,0.082627888451296,0.9965804694303818,386.6120775598116,-236.3177481521057)" fill="#2c2891" filter="url(#bbburst-blur-1)"></use><use xlink:href="#bbburst-shape-5" width="12.683564058575355" opacity="0.7926024585218223" transform="matrix(0.8848111772562174,0.46594976188690845,-0.46594976188690845,0.8848111772562174,289.9275980662859,-180.53302401819306)" fill="#00a19d"></use><use xlink:href="#bbburst-shape-2" width="21.220531263602346" opacity="0.5122033812849842" transform="matrix(0.9491347086203076,-0.31487029852344584,0.31487029852344584,0.9491347086203076,-38.15686759638429,101.57709278634576)" fill="#2c2891" filter="url(#bbburst-blur-1)"></use><use xlink:href="#bbburst-shape-2" width="42.12047648669965" opacity="0.22363966087339893" transform="matrix(0.8635451269041722,0.5042715675110557,-0.5042715675110557,0.8635451269041722,586.2577462524443,307.70513126065174)" fill="#2c2891" filter="url(#bbburst-blur-3)"></use><use xlink:href="#bbburst-shape-4" width="23.2009196531205" opacity="0.6059482226837298" transform="matrix(0.7592790040779639,0.6507652372141395,-0.6507652372141395,0.7592790040779639,624.7324639651542,-184.90131850012324)" fill="#2c2891" filter="url(#bbburst-blur-1)"></use><use xlink:href="#bbburst-shape-1" width="11.650983048120768" opacity="0.816681509973925" transform="matrix(0.8160970660569333,0.5779148542590555,-0.5779148542590555,0.8160970660569333,247.55922916491843,-147.69959547587936)" fill="#2c2891"></use><use xlink:href="#bbburst-shape-10" width="7.190457106674668" opacity="0.8254463571414771" transform="matrix(0.8813419133587829,-0.47247902784894025,0.47247902784894025,0.8813419133587829,-18.770665981599223,-330.712725137802)" fill="none" stroke="#2c2891"></use><use xlink:href="#bbburst-shape-6" width="45.66420347392228" opacity="0.2506521014309343" transform="matrix(0.8577116274603571,0.5141310767881141,-0.5141310767881141,0.8577116274603571,773.355115325108,110.5984813030197)" fill="#ffa6d5" filter="url(#bbburst-blur-2)"></use><use xlink:href="#bbburst-shape-10" width="47.22478668469632" opacity="0.16227325571034334" transform="matrix(0.96464956623825,0.2635359830390453,-0.2635359830390453,0.96464956623825,823.1921802280759,-0.4657863741838355)" fill="none" stroke="#00a19d" filter="url(#bbburst-blur-3)"></use><use xlink:href="#bbburst-shape-8" width="24.608572716411228" opacity="0.6143241661873127" transform="matrix(0.9109138251836415,0.4125966590864573,-0.4125966590864573,0.9109138251836415,238.47150827360252,6.831259982605047)" fill="none" stroke="#ffa6d5" filter="url(#bbburst-blur-1)"></use><use xlink:href="#bbburst-shape-1" width="10.89754261410657" opacity="0.7869865237993731" transform="matrix(0.9513452169489676,0.3081270487774838,-0.3081270487774838,0.9513452169489676,132.06794900877475,-169.65104707447432)" fill="#ff5c58"></use><use xlink:href="#bbburst-shape-5" width="5.391884215827359" opacity="0.9698874279897759" transform="matrix(0.8726889648181656,0.4882765309582251,-0.4882765309582251,0.8726889648181656,201.25360301300017,-321.4446147750712)" fill="#ff5c58"></use><use xlink:href="#bbburst-shape-13" width="45.82928623016171" opacity="0.3379896032673413" transform="matrix(0.9296719312947356,0.3683885179572192,-0.3683885179572192,0.9296719312947356,749.2776539176659,-157.04377573640994)" fill="none" stroke="#2c2891" filter="url(#bbburst-blur-2)"></use><use xlink:href="#bbburst-shape-3" width="41.637578081057214" opacity="0.48111548413143257" transform="matrix(0.9882538380901013,-0.1528213057796063,0.1528213057796063,0.9882538380901013,372.34342665934764,-141.21616685515383)" fill="#ffbd9b" filter="url(#bbburst-blur-1)"></use><use xlink:href="#bbburst-shape-4" width="14.326270987012766" opacity="0.7957192541937923" transform="matrix(0.8742495280530654,-0.48547684053824064,0.48547684053824064,0.8742495280530654,-20.527274278789122,-249.46594839450444)" fill="#ffa6d5"></use><use xlink:href="#bbburst-shape-3" width="6.948203024902846" opacity="0.9401661479633934" transform="matrix(0.966681079450161,0.2559837702532556,-0.2559837702532556,0.966681079450161,158.0584678376216,-377.9087091350652)" fill="#00a19d"></use><use xlink:href="#bbburst-shape-6" width="15.730106461808294" opacity="0.6891719421041664" transform="matrix(0.953215448487193,-0.30229176099483684,0.30229176099483684,0.953215448487193,175.1123647489192,-311.93095038321263)" fill="#ffbd9b"></use><use xlink:href="#bbburst-shape-2" width="7.301215016799637" opacity="0.9235734050861781" transform="matrix(0.880550166004316,-0.47395295668428056,0.47395295668428056,0.880550166004316,-122.4803762322385,-320.5363048759118)" fill="#00a19d"></use><use xlink:href="#bbburst-shape-1" width="13.50858055527175" opacity="0.6833998377424663" transform="matrix(0.9960791648882652,0.08846636239552426,-0.08846636239552426,0.9960791648882652,47.92871593730213,-82.9987656116387)" fill="#ffbd9b"></use><use xlink:href="#bbburst-shape-13" width="16.093653376543337" opacity="0.6645592376263015" transform="matrix(0.9979953795489179,0.06328682642549924,-0.06328682642549924,0.9979953795489179,71.26631182696299,-68.638813932392)" fill="none" stroke="#ffbd9b"></use><use xlink:href="#bbburst-shape-9" width="32.54603655957481" opacity="0.3905066244712726" transform="matrix(0.9167841519287913,-0.3993830476775484,0.3993830476775484,0.9167841519287913,371.3001369993077,-89.67430192545396)" fill="none" stroke="#ffbd9b" filter="url(#bbburst-blur-2)"></use><use xlink:href="#bbburst-shape-2" width="30.221461422774432" opacity="0.3547535560847137" transform="matrix(0.7631246640941608,0.6462513033264801,-0.6462513033264801,0.7631246640941608,293.2403868585108,328.58093232109155)" fill="#ffa6d5" filter="url(#bbburst-blur-2)"></use><use xlink:href="#bbburst-shape-10" width="24.03358186121529" opacity="0.47853451173201134" transform="matrix(0.9828349039904073,0.1844872664932918,-0.1844872664932918,0.9828349039904073,96.94133308989836,124.94157357517946)" fill="none" stroke="#ffa6d5" filter="url(#bbburst-blur-1)"></use><use xlink:href="#bbburst-shape-9" width="22.04217827123327" opacity="0.6446648009899614" transform="matrix(0.757568403008731,0.6527557849324669,-0.6527557849324669,0.757568403008731,600.608350488998,-237.3457590000562)" fill="none" stroke="#ffa6d5" filter="url(#bbburst-blur-1)"></use><use xlink:href="#bbburst-shape-5" width="14.947790885729194" opacity="0.75714411683634" transform="matrix(0.9698428920514519,-0.24373092691998635,0.24373092691998635,0.9698428920514519,6.110124681283892,-170.03445224370884)" fill="#ffa6d5"></use><use xlink:href="#bbburst-shape-13" width="9.62786330225195" opacity="0.748865702462358" transform="matrix(0.7529079516032962,-0.6581258363052834,0.6581258363052834,0.7529079516032962,-16.391517295128352,-279.92375535459416)" fill="none" stroke="#2c2891"></use><use xlink:href="#bbburst-shape-8" width="37.73108033791932" opacity="0.32244931250716247" transform="matrix(0.7956454068722887,-0.6057626486694522,0.6057626486694522,0.7956454068722887,406.08261958339483,-169.06919704641854)" fill="none" stroke="#2c2891" filter="url(#bbburst-blur-2)"></use><use xlink:href="#bbburst-shape-4" width="13.543764502291527" opacity="0.8900307102503536" transform="matrix(0.9938033372789641,-0.11115271842466785,0.11115271842466785,0.9938033372789641,22.203466395974985,-314.86200522552264)" fill="#ff5c58"></use><use xlink:href="#bbburst-shape-13" width="32.4479498797813" opacity="0.16122046058695105" transform="matrix(0.733239247449862,-0.6799707390757047,0.6799707390757047,0.733239247449862,81.35888069932662,472.81790292160997)" fill="none" stroke="#2c2891" filter="url(#bbburst-blur-3)"></use><use xlink:href="#bbburst-shape-2" width="21.83787072515612" opacity="0.6665081146267453" transform="matrix(0.763869603138553,0.6453706139893183,-0.6453706139893183,0.763869603138553,431.2792459407653,-32.796466042383884)" fill="#2c2891"></use><use xlink:href="#bbburst-shape-2" width="16.88841237225244" opacity="0.8293356065984178" transform="matrix(0.9294052482236833,0.36906081419499626,-0.36906081419499626,0.9294052482236833,220.65719927855264,-224.59054551217113)" fill="#00a19d"></use><use xlink:href="#bbburst-shape-4" width="23.2323844617651" opacity="0.6498813982686791" transform="matrix(0.8440601734717315,-0.5362484718475854,0.5362484718475854,0.8440601734717315,30.699226718292834,-91.45611553711424)" fill="#ff5c58" filter="url(#bbburst-blur-1)"></use><use xlink:href="#bbburst-shape-6" width="31.47149932421215" opacity="0.34639650960444335" transform="matrix(0.7953386960579905,0.6061652897954283,-0.6061652897954283,0.7953386960579905,881.9906086396246,-282.49174494638044)" fill="#ff5c58" filter="url(#bbburst-blur-2)"></use><use xlink:href="#bbburst-shape-2" width="39.10186032755069" opacity="0.4573712963818527" transform="matrix(0.9706755323962114,0.24039345000921228,-0.24039345000921228,0.9706755323962114,589.3839273095174,-213.819936517504)" fill="#00a19d" filter="url(#bbburst-blur-1)"></use><use xlink:href="#bbburst-shape-10" width="28.4155948886971" opacity="0.6097288757014421" transform="matrix(0.9828931754573695,0.18417656104762262,-0.18417656104762262,0.9828931754573695,305.9525568610387,-92.9966663420301)" fill="none" stroke="#2c2891" filter="url(#bbburst-blur-1)"></use><use xlink:href="#bbburst-shape-4" width="20.129386830542533" opacity="0.5584612271400404" transform="matrix(0.9886763730649077,-0.1500634177380326,0.1500634177380326,0.9886763730649077,51.296048172466996,30.61670051260245)" fill="#ffbd9b" filter="url(#bbburst-blur-1)"></use><use xlink:href="#bbburst-shape-1" width="43.07260916081467" opacity="0.22035948556626372" transform="matrix(0.8811373154299625,0.47286047768541495,-0.47286047768541495,0.8811373154299625,380.04610372616565,388.26275259886523)" fill="#00a19d" filter="url(#bbburst-blur-3)"></use><use xlink:href="#bbburst-shape-3" width="8.076483254094626" opacity="0.9370251152390425" transform="matrix(0.9562673054344195,-0.2924941718345763,0.2924941718345763,0.9562673054344195,-108.96126311921012,-319.48171866517333)" fill="#ffa6d5"></use><use xlink:href="#bbburst-shape-4" width="6.104065383309311" opacity="0.9719399295315991" transform="matrix(0.9646612969442452,0.2634930400937506,-0.2634930400937506,0.9646612969442452,122.95622106945443,-367.5080359851554)" fill="#2c2891"></use><use xlink:href="#bbburst-shape-6" width="6.646645415075149" opacity="0.7881161466856255" transform="matrix(0.9927305191303969,-0.12035828341702391,0.12035828341702391,0.9927305191303969,160.12845061972183,-385.1807272209018)" fill="#ffa6d5"></use><use xlink:href="#bbburst-shape-14" width="26.539004252695264" opacity="0.5626616722436026" transform="matrix(0.9996186777222169,-0.027613387131727167,0.027613387131727167,0.9996186777222169,412.116050254829,-371.1934798979312)" fill="none" stroke="#2c2891" filter="url(#bbburst-blur-1)"></use><use xlink:href="#bbburst-shape-6" width="17.260734382047072" opacity="0.5706932883711155" transform="matrix(0.8704905329482623,-0.4921851603283569,0.4921851603283569,0.8704905329482623,-166.3479417385947,83.66987550887552)" fill="#ffa6d5" filter="url(#bbburst-blur-1)"></use><use xlink:href="#bbburst-shape-5" width="49.926593198867714" opacity="0.33993218217287713" transform="matrix(0.7366946010550657,0.6762256019822953,-0.6762256019822953,0.7366946010550657,401.41467359367675,331.39905371267537)" fill="#00a19d" filter="url(#bbburst-blur-2)"></use><use xlink:href="#bbburst-shape-6" width="19.50828992619784" opacity="0.6916229305507107" transform="matrix(0.8539274172595417,0.5203921272006798,-0.5203921272006798,0.8539274172595417,450.0595471086786,-166.4238728704076)" fill="#2c2891"></use><use xlink:href="#bbburst-shape-5" width="20.397566049101645" opacity="0.6991437493426136" transform="matrix(0.9949078960298795,0.10078828511984128,-0.10078828511984128,0.9949078960298795,298.4063529741518,-262.74530914863317)" fill="#2c2891"></use><use xlink:href="#bbburst-shape-13" width="20.54656800289659" opacity="0.5912313514145622" transform="matrix(0.9547058377804087,-0.2975512784513079,0.2975512784513079,0.9547058377804087,272.9346268669159,-303.47163463970315)" fill="none" stroke="#ff5c58" filter="url(#bbburst-blur-1)"></use><use xlink:href="#bbburst-shape-9" width="6.15289307494506" opacity="0.9582037432390926" transform="matrix(0.9814598721705183,-0.19166773155393135,0.19166773155393135,0.9814598721705183,-50.586882631372085,-362.04038658740456)" fill="none" stroke="#ffa6d5"></use><use xlink:href="#bbburst-shape-14" width="13.528314935535251" opacity="0.7727731088714975" transform="matrix(0.9831986705352237,0.18253869249495763,-0.18253869249495763,0.9831986705352237,280.3909737441004,-318.1843345316643)" fill="none" stroke="#ff5c58"></use><use xlink:href="#bbburst-shape-8" width="16.761994717957304" opacity="0.7955873095503341" transform="matrix(0.9873920983245466,0.1582935379800736,-0.1582935379800736,0.9873920983245466,211.63933429255923,-264.899141796537)" fill="none" stroke="#2c2891"></use><use xlink:href="#bbburst-shape-13" width="13.986303403685985" opacity="0.7493764096369815" transform="matrix(0.9148468854281931,0.4038009116165224,-0.4038009116165224,0.9148468854281931,233.72149182810205,-130.78273329696827)" fill="none" stroke="#ffbd9b"></use><use xlink:href="#bbburst-shape-8" width="8.272596990314801" opacity="0.9239826446534443" transform="matrix(0.9115369636351845,-0.41121814639768556,0.41121814639768556,0.9115369636351845,-112.80646085096387,-310.9157479123376)" fill="none" stroke="#2c2891"></use><use xlink:href="#bbburst-shape-1" width="40.41357046349249" opacity="0.22964370701992765" transform="matrix(0.8092676831820511,-0.5874400539264882,0.5874400539264882,0.8092676831820511,504.33208449314543,-161.88872499523922)" fill="#2c2891" filter="url(#bbburst-blur-3)"></use><use xlink:href="#bbburst-shape-4" width="12.23617579670088" opacity="0.8689655442029224" transform="matrix(0.9872229310504743,-0.1593451737835519,0.1593451737835519,0.9872229310504743,-54.03693329591208,-263.8175622256873)" fill="#00a19d"></use><use xlink:href="#bbburst-shape-14" width="27.254924838774016" opacity="0.6420530012109873" transform="matrix(0.912432461728728,0.40922732409218876,-0.40922732409218876,0.912432461728728,469.0555686441272,-205.83332437986)" fill="none" stroke="#ffa6d5" filter="url(#bbburst-blur-1)"></use><use xlink:href="#bbburst-shape-3" width="33.86826109953029" opacity="0.33492762480544" transform="matrix(0.9893568172201113,0.14550975300677066,-0.14550975300677066,0.9893568172201113,368.852326240897,180.6052778161996)" fill="#ffa6d5" filter="url(#bbburst-blur-2)"></use><use xlink:href="#bbburst-shape-8" width="16.18122144818293" opacity="0.7046461682393614" transform="matrix(0.9958313520880763,-0.09121358560233207,0.09121358560233207,0.9958313520880763,37.14745428734041,-113.76245448934571)" fill="none" stroke="#ffbd9b"></use><use xlink:href="#bbburst-shape-7" width="37.02498961984691" opacity="0.39694336002080555" transform="matrix(0.8941083730369708,-0.44785066402226215,0.44785066402226215,0.8941083730369708,32.15578974248035,209.0022963852516)" fill="#ffa6d5" filter="url(#bbburst-blur-2)"></use><use xlink:href="#bbburst-shape-14" width="8.342548427184308" opacity="0.8944708134951269" transform="matrix(0.9994040383973519,-0.034519096672193356,0.034519096672193356,0.9994040383973519,-2.7832722482819907,-295.1765441590069)" fill="none" stroke="#2c2891"></use><use xlink:href="#bbburst-shape-10" width="10.401950099050133" opacity="0.91672569427089" transform="matrix(0.9768453548431403,-0.2139466118483285,0.2139466118483285,0.9768453548431403,-75.49015549170883,-307.74433601423243)" fill="none" stroke="#ffbd9b"></use><use xlink:href="#bbburst-shape-10" width="11.113924942902305" opacity="0.7257000103590905" transform="matrix(0.9958468824258404,0.09104387273580983,-0.09104387273580983,0.9958468824258404,304.80505451578966,-384.4376107047578)" fill="none" stroke="#ff5c58"></use><use xlink:href="#bbburst-shape-7" width="12.915438447239412" opacity="0.8368539279857281" transform="matrix(0.9992314336614413,-0.039198749761959965,0.039198749761959965,0.9992314336614413,129.70250735230908,-339.87048000474243)" fill="#2c2891"></use><use xlink:href="#bbburst-shape-4" width="24.593494740897512" opacity="0.28920451170666894" transform="matrix(0.965607290613815,-0.2600049236330868,0.2600049236330868,0.965607290613815,-55.59069420179898,325.2107323661262)" fill="#2c2891" filter="url(#bbburst-blur-2)"></use><use xlink:href="#bbburst-shape-14" width="10.293875593843774" opacity="0.8111173051526492" transform="matrix(0.9580750134220278,-0.28651748403261756,0.28651748403261756,0.9580750134220278,60.598370842909745,-324.91824803307844)" fill="none" stroke="#ffbd9b"></use><use xlink:href="#bbburst-shape-11" width="23.69858723617166" opacity="0.497078763632927" transform="matrix(0.9790096897082294,0.2038137077269246,-0.2038137077269246,0.9790096897082294,263.28559594635226,69.97239178830057)" fill="none" stroke="#ffbd9b" filter="url(#bbburst-blur-1)"></use><use xlink:href="#bbburst-shape-5" width="56.53741168677806" opacity="0.0876909386340683" transform="matrix(0.8111232166342518,0.5848753093069535,-0.5848753093069535,0.8111232166342518,753.7642634424958,392.32276623253375)" fill="#00a19d" filter="url(#bbburst-blur-3)"></use><use xlink:href="#bbburst-shape-5" width="12.573082762086493" opacity="0.8700644099733621" transform="matrix(0.8683742111704656,-0.49590949716059235,0.49590949716059235,0.8683742111704656,-158.92766648292232,-222.2990378394249)" fill="#00a19d"></use><use xlink:href="#bbburst-shape-9" width="24.435035941491932" opacity="0.5752099363153635" transform="matrix(0.7408894604773144,0.6716269852780142,-0.6716269852780142,0.7408894604773144,636.6435734651287,-108.80747452202814)" fill="none" stroke="#ff5c58" filter="url(#bbburst-blur-1)"></use><use xlink:href="#bbburst-shape-11" width="15.387954431408613" opacity="0.7462893009433538" transform="matrix(0.8410006401938958,-0.5410341238715517,0.5410341238715517,0.8410006401938958,3.7106187828396457,-218.49547111738667)" fill="none" stroke="#2c2891"></use><use xlink:href="#bbburst-shape-7" width="8.926988972567624" opacity="0.9420384193535641" transform="matrix(0.9482729502518545,-0.3174561573204146,0.3174561573204146,0.9482729502518545,-99.71359199986017,-329.2512214346803)" fill="#ffbd9b"></use><use xlink:href="#bbburst-shape-3" width="24.109137888235058" opacity="0.22776401369618693" transform="matrix(0.7805516950531367,0.6250912344207644,-0.6250912344207644,0.7805516950531367,318.69431576939655,448.4591762430173)" fill="#ffa6d5" filter="url(#bbburst-blur-3)"></use><use xlink:href="#bbburst-shape-6" width="13.078837327591415" opacity="0.7910072970959346" transform="matrix(0.9658125280341593,-0.25924151035716925,0.25924151035716925,0.9658125280341593,95.02462946859333,-344.16028468826477)" fill="#2c2891"></use><use xlink:href="#bbburst-shape-11" width="7.998052846940773" opacity="0.9433203510939588" transform="matrix(0.7481059823765571,0.6635792636395492,-0.6635792636395492,0.7481059823765571,310.6566076752939,-272.06776358044243)" fill="none" stroke="#2c2891"></use><use xlink:href="#bbburst-shape-10" width="36.6315201391717" opacity="0.37784910953330964" transform="matrix(0.9158116501298919,-0.4016080445986665,0.4016080445986665,0.9158116501298919,197.4594785271828,137.55839307196055)" fill="none" stroke="#2c2891" filter="url(#bbburst-blur-2)"></use><use xlink:href="#bbburst-shape-11" width="9.291471510182145" opacity="0.8432367854253869" transform="matrix(0.9300970823198864,-0.3673137861012495,0.3673137861012495,0.9300970823198864,-137.0045541596283,-214.3328413465632)" fill="none" stroke="#ffa6d5"></use><use xlink:href="#bbburst-shape-4" width="16.975533243894855" opacity="0.6869394672658187" transform="matrix(0.896069238154457,-0.44391431654463553,0.44391431654463553,0.896069238154457,19.032855678854617,-117.34806546077635)" fill="#00a19d"></use><use xlink:href="#bbburst-shape-5" width="15.507847940468654" opacity="0.7595505990143796" transform="matrix(0.9692897657750167,-0.24592143046878454,0.24592143046878454,0.9692897657750167,-63.22542376099926,-149.17404052587466)" fill="#ffa6d5"></use><use xlink:href="#bbburst-shape-14" width="22.417817268915957" opacity="0.6669547750313305" transform="matrix(0.8345495395507107,0.5509329052032533,-0.5509329052032533,0.8345495395507107,524.5294018005698,-227.6322369664038)" fill="none" stroke="#ffbd9b"></use><use xlink:href="#bbburst-shape-9" width="22.336725929673605" opacity="0.4981722094562412" transform="matrix(0.9175419433511844,0.3976390098963277,-0.3976390098963277,0.9175419433511844,649.0442886457616,-330.9158616854422)" fill="none" stroke="#ffa6d5" filter="url(#bbburst-blur-1)"></use><use xlink:href="#bbburst-shape-1" width="8.036790038728263" opacity="0.9553940685281246" transform="matrix(0.9026016276572351,-0.4304768306779238,0.4304768306779238,0.9026016276572351,-165.52188154459174,-315.8989829101576)" fill="#00a19d"></use><use xlink:href="#bbburst-shape-7" width="13.9625300942852" opacity="0.8335750810786343" transform="matrix(0.9854254915543239,-0.1701076147470155,0.1701076147470155,0.9854254915543239,63.35240373082648,-300.4398189865147)" fill="#2c2891"></use><use xlink:href="#bbburst-shape-3" width="3.4588778132609006" opacity="0.9929920025352209" transform="matrix(0.759291368695891,-0.6507508105441902,0.6507508105441902,0.759291368695891,-256.73250276407924,-297.56353766330517)" fill="#2c2891"></use><use xlink:href="#bbburst-shape-9" width="10.239475334459089" opacity="0.9050474918891426" transform="matrix(0.8109234641991093,-0.5851522325098963,0.5851522325098963,0.8109234641991093,-160.14698324986125,-267.4348093277818)" fill="none" stroke="#ffbd9b"></use><use xlink:href="#bbburst-shape-8" width="54.55112936766" opacity="0.14133586806649445" transform="matrix(0.9995448135479682,-0.03016895273882433,0.03016895273882433,0.9995448135479682,572.1359370982454,203.84209221306054)" fill="none" stroke="#ffbd9b" filter="url(#bbburst-blur-3)"></use><use xlink:href="#bbburst-shape-3" width="55.67418704577661" opacity="0.09111640596602322" transform="matrix(0.783149575076521,-0.6218333724217964,0.6218333724217964,0.783149575076521,462.4428142132407,241.36987877282706)" fill="#2c2891" filter="url(#bbburst-blur-3)"></use><use xlink:href="#bbburst-shape-10" width="8.329331657975622" opacity="0.8639998313130741" transform="matrix(0.9999033170695487,-0.013905269264332998,0.013905269264332998,0.9999033170695487,125.56106679503253,-385.99819148731035)" fill="none" stroke="#2c2891"></use><use xlink:href="#bbburst-shape-6" width="40.1419078472435" opacity="0.45281160090961103" transform="matrix(0.9817831541445801,-0.19000483740662957,0.19000483740662957,0.9817831541445801,181.96592060587247,82.60134823987454)" fill="#00a19d" filter="url(#bbburst-blur-1)"></use><use xlink:href="#bbburst-shape-13" width="38.00109401058381" opacity="0.2780932567024196" transform="matrix(0.9013371910942805,-0.4331180762220304,0.4331180762220304,0.9013371910942805,441.7533356841734,-3.6429890507646974)" fill="none" stroke="#00a19d" filter="url(#bbburst-blur-2)"></use><use xlink:href="#bbburst-shape-11" width="51.97937645552377" opacity="0.2496690043727241" transform="matrix(0.8167744607027009,-0.5769570870903764,0.5769570870903764,0.8167744607027009,227.42814134384983,264.5954190911371)" fill="none" stroke="#2c2891" filter="url(#bbburst-blur-3)"></use><use xlink:href="#bbburst-shape-6" width="23.150953325678806" opacity="0.6578539988233274" transform="matrix(0.9726925324225236,-0.23209747385410678,0.23209747385410678,0.9726925324225236,37.13367434445189,-74.75345837720278)" fill="#ffa6d5"></use><use xlink:href="#bbburst-shape-13" width="27.033781525520116" opacity="0.6095581368018661" transform="matrix(0.9010783243117388,-0.4336563771646264,0.4336563771646264,0.9010783243117388,10.521647320380993,-16.983295396631604)" fill="none" stroke="#2c2891" filter="url(#bbburst-blur-1)"></use><use xlink:href="#bbburst-shape-10" width="16.368711570119046" opacity="0.6362487268204016" transform="matrix(0.9311997116062447,-0.36450939234050855,0.36450939234050855,0.9311997116062447,-135.390727397678,-6.192671853599904)" fill="none" stroke="#00a19d" filter="url(#bbburst-blur-1)"></use><use xlink:href="#bbburst-shape-8" width="36.53941320264981" opacity="0.28808658032803725" transform="matrix(0.8642687779614563,-0.5030302967426623,0.5030302967426623,0.8642687779614563,43.06677038640095,326.1929892466915)" fill="none" stroke="#00a19d" filter="url(#bbburst-blur-2)"></use><use xlink:href="#bbburst-shape-6" width="19.760115419701958" opacity="0.7264656855772107" transform="matrix(0.9947651655204666,-0.10218740366130646,0.10218740366130646,0.9947651655204666,103.86397767303936,-171.2194887503586)" fill="#ffbd9b"></use><use xlink:href="#bbburst-shape-5" width="40.71073227423676" opacity="0.24958245591479966" transform="matrix(0.918927877984101,0.39442560143027877,-0.39442560143027877,0.918927877984101,887.9470264231935,-327.61635707240055)" fill="#ffa6d5" filter="url(#bbburst-blur-3)"></use><use xlink:href="#bbburst-shape-14" width="9.520372133783823" opacity="0.8447323099693637" transform="matrix(0.9790301222981919,0.2037155360614096,-0.2037155360614096,0.9790301222981919,230.42283419496877,-369.8707870605407)" fill="none" stroke="#ff5c58"></use><use xlink:href="#bbburst-shape-4" width="12.085035606095794" opacity="0.7239639074458855" transform="matrix(0.9316357432228141,-0.36339350840332135,0.36339350840332135,0.9316357432228141,120.55894573857282,-320.8399806189284)" fill="#00a19d"></use><use xlink:href="#bbburst-shape-8" width="16.63307624317668" opacity="0.797633598759481" transform="matrix(0.9931851895701955,0.1165468970775914,-0.1165468970775914,0.9931851895701955,110.91182342206812,-209.3300532122149)" fill="none" stroke="#ffa6d5"></use><use xlink:href="#bbburst-shape-2" width="16.826065762642802" opacity="0.7080832381883734" transform="matrix(0.9167280089815919,0.3995118991327371,-0.3995118991327371,0.9167280089815919,275.4087941882421,-105.45505115407144)" fill="#00a19d"></use><use xlink:href="#bbburst-shape-3" width="22.192286345128707" opacity="0.6097568612689381" transform="matrix(0.9832427146772237,0.18230130014392004,-0.18230130014392004,0.9832427146772237,199.3837624750087,-30.102084078182145)" fill="#2c2891" filter="url(#bbburst-blur-1)"></use><use xlink:href="#bbburst-shape-8" width="7.425083741806004" opacity="0.9000334327812692" transform="matrix(0.9135101553635606,-0.4068159240340075,0.4068159240340075,0.9135101553635606,-66.68629367513978,-353.56477181522973)" fill="none" stroke="#00a19d"></use><use xlink:href="#bbburst-shape-3" width="11.032113692910505" opacity="0.8960243821961013" transform="matrix(0.7401332219882772,-0.6724602692421698,0.6724602692421698,0.7401332219882772,-176.07053357951122,-254.94423879246875)" fill="#ffbd9b"></use><use xlink:href="#bbburst-shape-7" width="8.703866369705052" opacity="0.9194463693518794" transform="matrix(0.9987228674474471,-0.05052359881826564,0.05052359881826564,0.9987228674474471,55.179479933988226,-388.0377019130456)" fill="#ffa6d5"></use><use xlink:href="#bbburst-shape-11" width="29.59664913473114" opacity="0.5221748992407685" transform="matrix(0.7325923670382634,-0.680667630901657,0.680667630901657,0.7325923670382634,183.66086400040354,-182.24330971823082)" fill="none" stroke="#00a19d" filter="url(#bbburst-blur-1)"></use><use xlink:href="#bbburst-shape-7" width="26.069933608429483" opacity="0.42901193451303243" transform="matrix(0.9980082547061392,-0.06308346485732967,0.06308346485732967,0.9980082547061392,531.3729976623802,-360.18903217650933)" fill="#2c2891" filter="url(#bbburst-blur-2)"></use><use xlink:href="#bbburst-shape-3" width="46.471456742887334" opacity="0.3813738673735745" transform="matrix(0.918548707104453,0.3953078201563153,-0.3953078201563153,0.918548707104453,642.7768447966387,-21.005730709712793)" fill="#ffbd9b" filter="url(#bbburst-blur-2)"></use><use xlink:href="#bbburst-shape-14" width="18.0602113153773" opacity="0.7691300955568444" transform="matrix(0.8320307365204748,-0.55472953183078,0.55472953183078,0.8320307365204748,-79.3229691584803,-152.33952301006886)" fill="none" stroke="#00a19d"></use><use xlink:href="#bbburst-shape-6" width="12.485290033077383" opacity="0.6054463786875707" transform="matrix(0.9034504412304659,0.42869254745152313,-0.42869254745152313,0.9034504412304659,208.69085903995364,28.163236368307935)" fill="#ff5c58" filter="url(#bbburst-blur-1)"></use></svg>